# xmcd
#
# Track frame offsets:
#	150
#	19975
#	33118
#	52762
#	79458
#	102632
#	132030
#	153571
#	190662
#	214364
#	237532
#	256165
#	278055
#
# Disc length: 4009 seconds
#
# Revision: 1
# Processed by: cddbd v1.5.2PL0 Copyright (c) Steve Scherf et al.
# Submitted via: audiograbber 1.83.01
#
DISCID=b20fa70d
DTITLE=Blue Connection - BUNT
DYEAR=2010
DGENRE=Funk
TTITLE0=BUNT
TTITLE1=Killersex
TTITLE2=Soul's Awakened
TTITLE3=Diggin In The Dirt
TTITLE4=Still
TTITLE5=Mein 1. Mal
TTITLE6=Road In The Rain
TTITLE7=Thru The 70's
TTITLE8=Blue Groove
TTITLE9=Milkman's Dead
TTITLE10=Beam Me Up
TTITLE11=Bad For You
TTITLE12=At Night
EXTD=
EXTT0=
EXTT1=
EXTT2=
EXTT3=
EXTT4=
EXTT5=
EXTT6=
EXTT7=
EXTT8=
EXTT9=
EXTT10=
EXTT11=
EXTT12=
PLAYORDER=
